<svg
  width="45"
  height="40"
  viewBox="0 0 45 46"
  fill="none"
  xmlns="http://www.w3.org/2000/svg"
>
  <path
    d="M5.52023 22.0386C12.5098 25.2385 17.6637 31.7535 19.1032 39.5356"
    stroke="#3483FA"
    stroke-miterlimit="10"
  />
  <path
    d="M39.4798 22.0386C32.4902 25.2385 27.3363 31.7535 25.8968 39.5356"
    stroke="#3483FA"
    stroke-miterlimit="10"
  />
  <path
    d="M6.58936 16.875C6.58936 16.875 14.563 15.875 22.5003 15.875C30.4375 15.875 38.4108 16.875 38.4108 16.875"
    stroke="#3483FA"
    stroke-miterlimit="10"
  />
  <path
    d="M22.5 44.875C34.6503 44.875 44.5 35.0253 44.5 22.875C44.5 10.7247 34.6503 0.875 22.5 0.875C10.3497 0.875 0.5 10.7247 0.5 22.875C0.5 35.0253 10.3497 44.875 22.5 44.875Z"
    stroke="#3483FA"
    stroke-miterlimit="10"
    stroke-linecap="square"
  />
  <path
    d="M22.5 39.875C31.8888 39.875 39.5 32.2638 39.5 22.875C39.5 13.4862 31.8888 5.875 22.5 5.875C13.1112 5.875 5.5 13.4862 5.5 22.875C5.5 32.2638 13.1112 39.875 22.5 39.875Z"
    stroke="#3483FA"
    stroke-miterlimit="10"
    stroke-linecap="square"
  />
  <path
    d="M22.5 28.875C24.7091 28.875 26.5 27.0841 26.5 24.875C26.5 22.6659 24.7091 20.875 22.5 20.875C20.2909 20.875 18.5 22.6659 18.5 24.875C18.5 27.0841 20.2909 28.875 22.5 28.875Z"
    stroke="#3483FA"
    stroke-miterlimit="10"
    stroke-linecap="square"
  />
</svg>