<svg
  width="45"
  height="45"
  viewBox="0 0 45 45"
  fill="none"
  xmlns="http://www.w3.org/2000/svg"
>
  <path
    d="M43 8.47509L37.1 14.3751L30 7.27509L35.9 1.37509C34.5 0.975093 33.1 0.775093 31.5 0.875093C25.9 1.37509 21.4 6.37509 21.5 11.9751C21.5 13.0751 21.7 14.1751 22 15.1751L2.80001 32.1751C-0.0999887 34.6751 -0.199989 39.1751 2.50001 41.8751C5.20001 44.5751 9.60001 44.4751 12.2 41.5751L29.2 22.3751C30.9 22.8751 32.8 23.0751 34.8 22.6751C38.8 21.8751 42.1 18.8751 43.2 14.9751C43.7 12.6751 43.6 10.4751 43 8.47509Z"
    stroke="#3483FA"
    stroke-miterlimit="10"
    stroke-linecap="square"
  />
</svg>