<svg
  width="45"
  height="40"
  viewBox="0 0 49 49"
  fill="none"
  xmlns="http://www.w3.org/2000/svg"
>
  <g clip-path="url(#clip0_1_513)">
    <path
      d="M8.5 46.875V42.875"
      stroke="#3483FA"
      stroke-miterlimit="10"
      stroke-linecap="square"
    />
    <path
      d="M40.5 46.875V42.875"
      stroke="#3483FA"
      stroke-miterlimit="10"
      stroke-linecap="square"
    />
    <path
      d="M40.5 23.975V6.875C40.5 4.675 38.7 2.875 36.5 2.875H12.5C10.3 2.875 8.5 4.675 8.5 6.875V23.975"
      stroke="#3483FA"
      stroke-miterlimit="10"
    />
    <path
      d="M46.5 42.875V28.875C46.5 26.075 44.3 23.875 41.5 23.875C38.7 23.875 36.5 26.075 36.5 28.875V32.875H12.5V28.875C12.5 26.075 10.3 23.875 7.5 23.875C4.7 23.875 2.5 26.075 2.5 28.875V42.875H46.5Z"
      stroke="#3483FA"
      stroke-miterlimit="10"
      stroke-linecap="square"
    />
  </g>
  <defs>
    <clipPath id="clip0_1_513">
      <rect
        width="48"
        height="48"
        fill="white"
        transform="translate(0.5 0.875)"
      />
    </clipPath>
  </defs>
</svg>