<svg
  width="45"
  height="40"
  viewBox="0 0 45 46"
  fill="none"
  xmlns="http://www.w3.org/2000/svg"
>
  <path
    d="M22.5 44.875C33.5457 44.875 42.5 35.9207 42.5 24.875C42.5 13.8293 33.5457 4.875 22.5 4.875C11.4543 4.875 2.5 13.8293 2.5 24.875C2.5 35.9207 11.4543 44.875 22.5 44.875Z"
    stroke="#3483FA"
    stroke-miterlimit="10"
    stroke-linecap="square"
  />
  <path
    d="M22.5 31.875L25.5 27.875H19.5L22.5 31.875Z"
    stroke="#3483FA"
    stroke-miterlimit="10"
    stroke-linecap="square"
  />
  <path
    d="M22.5 31.875L25.5 27.875H19.5L22.5 31.875Z"
    fill="#3483FA"
  />
  <path
    d="M22.5 31.875V35.875"
    stroke="#3483FA"
    stroke-miterlimit="10"
    stroke-linecap="square"
  />
  <path
    d="M18.5 35.875H26.5"
    stroke="#3483FA"
    stroke-miterlimit="10"
    stroke-linecap="square"
  />
  <path
    d="M15.5 22.875C16.6046 22.875 17.5 21.9796 17.5 20.875C17.5 19.7704 16.6046 18.875 15.5 18.875C14.3954 18.875 13.5 19.7704 13.5 20.875C13.5 21.9796 14.3954 22.875 15.5 22.875Z"
    fill="#3483FA"
  />
  <path
    d="M29.5 22.875C30.6046 22.875 31.5 21.9796 31.5 20.875C31.5 19.7704 30.6046 18.875 29.5 18.875C28.3954 18.875 27.5 19.7704 27.5 20.875C27.5 21.9796 28.3954 22.875 29.5 22.875Z"
    fill="#3483FA"
  />
  <path
    d="M12.442 7.585C12.471 7.346 12.5 7.122 12.5 6.875C12.5 3.561 9.814 0.875 6.5 0.875C3.186 0.875 0.5 3.561 0.5 6.875C0.5 10.189 3.186 12.875 6.5 12.875"
    stroke="#3483FA"
    stroke-miterlimit="10"
  />
  <path
    d="M32.558 7.585C32.529 7.346 32.5 7.122 32.5 6.875C32.5 3.561 35.186 0.875 38.5 0.875C41.814 0.875 44.5 3.561 44.5 6.875C44.5 10.189 41.814 12.875 38.5 12.875"
    stroke="#3483FA"
    stroke-miterlimit="10"
  />
</svg>